<svg id="Lag_2" data-name="Lag 2" xmlns="http://www.w3.org/2000/svg" viewBox="0 0 812.89 812.89"><defs><style>.cls-1{fill:#90cb49;}.cls-2{fill:none;stroke:#008947;stroke-miterlimit:10;stroke-width:3px;}</style></defs><path class="cls-1" d="M628.65,468.38c2.4,1.74-.14,7.88-2.75,11.25C615,493.7,608.47,501.88,596,516.11c-12.2,14-20.2,26.15-34.49,32.06-.78.32-11.61,6.46-26.58-.51-7.7-3.58-16.69-11.62-20.15-14.58-16.15-13.79-58.18-45-108.73-91.9-5-4.66,59,28.51,120.42,33.28,18.7,1.45,58.09.75,71.08-3C602.32,470.09,626,466.46,628.65,468.38Z"/><path class="cls-1" d="M599.1,297.29c5.73,17.64,12.08,30.75,9.82,46-.12.84-.4,13.28-14.07,22.56-7,4.77-18.53,8.36-22.85,9.81-20.13,6.79-68.47,26.86-134.67,46.18-6.59,1.92,54.73-36,90.35-86.29,10.83-15.31,30.44-49.48,33.89-62.55,1.25-4.76,10.28-26.94,13.29-28.24,2.72-1.17,6.69,4.16,8.25,8.13C589.6,269.51,593.26,279.32,599.1,297.29Z"/><path class="cls-1" d="M405.81,137.44c148.6,0,269.06,120.46,269.06,269.06S554.41,675.56,405.81,675.56,136.75,555.1,136.75,406.5,257.21,137.44,405.81,137.44ZM650.28,405.75C650.28,271.15,541.16,162,406.56,162S162.84,271.15,162.84,405.75,272,649.47,406.56,649.47,650.28,540.35,650.28,405.75Z"/><path class="cls-1" d="M465.14,222.61c.76,8.46-1.69,20.26-2.52,24.74-3.84,20.89-9.77,72.89-25,140.15-1.52,6.69-4.89-65.33-31.56-120.89-8.11-16.9-28.46-50.64-38.22-60-3.55-3.4-18.55-22.07-18.22-25.33.3-2.95,6.88-3.83,11.11-3.26,17.63,2.37,28,3.93,46.53,7.55,18.21,3.56,32.75,4.38,45,13.78C452.93,199.87,463.67,206.16,465.14,222.61Z"/><path class="cls-1" d="M445.43,606.16c3.56,3.4,18.56,22.07,18.23,25.33-.3,3-6.89,3.83-11.11,3.26-17.63-2.37-28-3.93-46.54-7.56-18.21-3.55-32.74-4.37-45-13.77-.67-.52-11.41-6.81-12.89-23.26-.76-8.46,1.7-20.26,2.52-24.74,3.84-20.89,9.78-72.89,25-140.15,1.51-6.69,4.89,65.33,31.55,120.89C415.33,563.06,435.68,596.8,445.43,606.16Z"/><circle class="cls-1" cx="406.56" cy="406.5" r="28.28"/><path class="cls-1" d="M404.7,371.82c5,4.68-58.9-28.68-120.33-33.63-18.69-1.5-58.09-.91-71.08,2.81-4.73,1.35-28.42,4.91-31.07,3-2.4-1.74.16-7.87,2.78-11.24,10.93-14,17.49-22.2,30-36.4,12.24-13.94,20.27-26.08,34.57-31.95.79-.32,11.63-6.44,26.59.58,7.68,3.6,16.65,11.66,20.1,14.63C312.35,293.44,354.28,324.76,404.7,371.82Z"/><path class="cls-1" d="M373.7,389.55c6.55-2.05-54,37.07-88.63,88.05-10.54,15.52-29.47,50.07-32.66,63.21-1.15,4.78-9.75,27.13-12.73,28.49-2.7,1.22-6.77-4-8.41-8-6.81-16.43-10.67-26.17-16.86-44-6.08-17.53-12.68-30.51-10.72-45.85.1-.84.14-13.29,13.62-22.83,6.93-4.91,18.37-8.73,22.66-10.27C260,431.18,307.89,410.17,373.7,389.55Z"/><circle class="cls-2" cx="405.81" cy="406.5" r="269.06"/><circle class="cls-2" cx="406.56" cy="405.75" r="243.72"/><circle class="cls-2" cx="406.56" cy="406.5" r="28.28"/><path class="cls-2" d="M437.59,387.5c15.26-67.26,21.19-119.26,25-140.15.83-4.48,3.28-16.28,2.52-24.74-1.47-16.45-12.21-22.74-12.89-23.26-12.27-9.4-26.81-10.22-45-13.78-18.55-3.62-28.9-5.18-46.53-7.55-4.23-.57-10.81.31-11.11,3.26-.33,3.26,14.67,21.93,18.22,25.33,9.76,9.36,30.11,43.1,38.22,60C432.7,322.17,436.07,394.19,437.59,387.5Z"/><path class="cls-2" d="M437.33,421.89c66.2-19.32,114.54-39.39,134.67-46.18,4.32-1.45,15.83-5,22.85-9.81,13.67-9.28,13.95-21.72,14.07-22.56,2.26-15.3-4.09-28.41-9.82-46-5.84-18-9.5-27.78-16-44.35-1.56-4-5.53-9.3-8.25-8.13-3,1.3-12,23.48-13.29,28.24-3.45,13.07-23.06,47.24-33.89,62.55C492.06,385.89,430.74,423.81,437.33,421.89Z"/><path class="cls-2" d="M406.09,441.18c50.55,46.91,92.58,78.11,108.73,91.9,3.46,3,12.45,11,20.15,14.58,15,7,25.8.83,26.58.51,14.29-5.91,22.29-18.08,34.49-32.06,12.43-14.23,19-22.41,29.86-36.48,2.61-3.37,5.15-9.51,2.75-11.25-2.66-1.92-26.33,1.71-31.06,3.07-13,3.76-52.38,4.46-71.08,3C465.07,469.69,401.06,436.52,406.09,441.18Z"/><path class="cls-2" d="M375.66,425.27c-15.26,67.26-21.2,119.26-25,140.15-.82,4.48-3.28,16.28-2.52,24.74,1.48,16.45,12.22,22.74,12.89,23.26,12.28,9.4,26.81,10.22,45,13.77,18.55,3.63,28.91,5.19,46.54,7.56,4.22.57,10.81-.31,11.11-3.26.33-3.26-14.67-21.93-18.23-25.33-9.75-9.36-30.1-43.1-38.22-60C380.55,490.6,377.17,418.58,375.66,425.27Z"/><path class="cls-2" d="M373.7,389.55C307.89,410.17,260,431.18,240,438.36c-4.29,1.54-15.73,5.36-22.66,10.27-13.48,9.54-13.52,22-13.62,22.83-2,15.34,4.64,28.32,10.72,45.85,6.19,17.85,10.05,27.59,16.86,44,1.64,3.94,5.71,9.19,8.41,8,3-1.36,11.58-23.71,12.73-28.49,3.19-13.14,22.12-47.69,32.66-63.21C319.68,426.62,380.25,387.5,373.7,389.55Z"/><path class="cls-2" d="M404.7,371.82c-50.42-47.06-92.35-78.38-108.47-92.22-3.45-3-12.42-11-20.1-14.63-15-7-25.8-.9-26.59-.58-14.3,5.87-22.33,18-34.57,31.95-12.48,14.2-19,22.36-30,36.4-2.62,3.37-5.18,9.5-2.78,11.24,2.65,1.93,26.34-1.63,31.07-3,13-3.72,52.39-4.31,71.08-2.81C345.8,343.14,409.72,376.5,404.7,371.82Z"/></svg>